<?xml version="1.0" encoding="UTF-8"?>
<!DOCTYPE svg PUBLIC "-//W3C//DTD SVG 1.1//EN" "http://www.w3.org/Graphics/SVG/1.1/DTD/svg11.dtd">
<!-- Creator: CorelDRAW -->
<svg xmlns="http://www.w3.org/2000/svg" xml:space="preserve" width="668px" height="305px" version="1.1" style="shape-rendering:geometricPrecision; text-rendering:geometricPrecision; image-rendering:optimizeQuality; fill-rule:evenodd; clip-rule:evenodd"
viewBox="0 0 460.74 210.16"
 xmlns:xlink="http://www.w3.org/1999/xlink"
 xmlns:xodm="http://www.corel.com/coreldraw/odm/2003">
 <defs>
  <style type="text/css">
   <![CDATA[
    .fil2 {fill:black}
    .fil1 {fill:#C2131A}
    .fil3 {fill:black;fill-rule:nonzero}
    .fil0 {fill:#C2131A;fill-rule:nonzero}
   ]]>
  </style>
 </defs>
 <g id="Camada_x0020_1">
  <metadata id="CorelCorpID_0Corel-Layer"/>
  <path class="fil0" d="M35.35 161.57l-10.2 0c-4.93,0 -8.74,-1.31 -11.43,-3.93 -2.68,-2.62 -4.02,-6.4 -4.02,-11.33l0 -29.68c0,-4.93 1.34,-8.71 4.02,-11.33 2.69,-2.62 6.5,-3.93 11.43,-3.93l10.2 0c4.87,0 8.67,1.32 11.38,3.97 2.72,2.66 4.07,6.42 4.07,11.29l0 4.4c0,1.37 -0.68,2.06 -2.06,2.06l-7.86 0c-1.31,0 -1.97,-0.69 -1.97,-2.06l0 -3.84c0,-2 -0.42,-3.42 -1.26,-4.26 -0.84,-0.84 -2.26,-1.26 -4.26,-1.26l-6.37 0c-1.93,0 -3.32,0.42 -4.17,1.26 -0.84,0.84 -1.26,2.26 -1.26,4.26l0 28.56c0,2 0.42,3.42 1.26,4.26 0.85,0.84 2.24,1.26 4.17,1.26l6.37 0c2,0 3.42,-0.42 4.26,-1.26 0.84,-0.84 1.26,-2.26 1.26,-4.26l0 -3.84c0,-1.37 0.66,-2.06 1.97,-2.06l7.86 0c1.38,0 2.06,0.69 2.06,2.06l0 4.4c0,4.87 -1.35,8.63 -4.07,11.28 -2.71,2.66 -6.51,3.98 -11.38,3.98z"/>
  <path id="_1" class="fil0" d="M426.97 151.27l6.65 0c2,0 3.42,-0.42 4.26,-1.26 0.85,-0.84 1.27,-2.26 1.27,-4.26l0 -28.56c0,-2 -0.42,-3.42 -1.27,-4.26 -0.84,-0.84 -2.26,-1.26 -4.26,-1.26l-6.65 0c-1.99,0 -3.4,0.42 -4.21,1.26 -0.81,0.84 -1.22,2.26 -1.22,4.26l0 28.56c0,2 0.41,3.42 1.22,4.26 0.81,0.84 2.22,1.26 4.21,1.26zm8.62 10.3l-10.49 0c-4.93,0 -8.74,-1.31 -11.42,-3.93 -2.69,-2.62 -4.03,-6.4 -4.03,-11.33l0 -29.68c0,-4.93 1.34,-8.71 4.03,-11.33 2.68,-2.62 6.49,-3.93 11.42,-3.93l10.49 0c4.93,0 8.74,1.31 11.42,3.93 2.69,2.62 4.03,6.4 4.03,11.33l0 29.68c0,4.93 -1.34,8.71 -4.03,11.33 -2.68,2.62 -6.49,3.93 -11.42,3.93z"/>
  <path id="_2" class="fil0" d="M73.65 152.99l5.54 0c1.67,0 2.85,-0.35 3.55,-1.05 0.7,-0.71 1.06,-1.89 1.06,-3.55l0 -23.8c0,-1.67 -0.36,-2.85 -1.06,-3.55 -0.7,-0.71 -1.88,-1.06 -3.55,-1.06l-5.54 0c-1.66,0 -2.83,0.35 -3.51,1.06 -0.68,0.7 -1.01,1.88 -1.01,3.55l0 23.8c0,1.66 0.33,2.84 1.01,3.55 0.68,0.7 1.85,1.05 3.51,1.05zm7.18 8.58l-8.74 0c-4.11,0 -7.28,-1.09 -9.52,-3.27 -2.24,-2.19 -3.35,-5.34 -3.35,-9.45l0 -24.73c0,-4.11 1.11,-7.26 3.35,-9.44 2.24,-2.19 5.41,-3.28 9.52,-3.28l8.74 0c4.11,0 7.28,1.09 9.52,3.28 2.24,2.18 3.36,5.33 3.36,9.44l0 24.73c0,4.11 -1.12,7.26 -3.36,9.45 -2.24,2.18 -5.41,3.27 -9.52,3.27z"/>
  <path id="_3" class="fil0" d="M136.39 111.4l11.55 0c1.09,0 1.63,0.55 1.63,1.64l0 46.89c0,1.1 -0.54,1.64 -1.63,1.64l-6.4 0c-1.09,0 -1.64,-0.54 -1.64,-1.64l0 -36.98 -0.31 0 -7.96 26.14c-0.31,1.04 -0.96,1.56 -1.95,1.56l-6.56 0c-0.99,0 -1.64,-0.52 -1.95,-1.56l-8.11 -26.22 -0.31 0 0 37.06c0,0.63 -0.11,1.06 -0.32,1.29 -0.21,0.24 -0.65,0.35 -1.32,0.35l-6.4 0c-1.09,0 -1.64,-0.54 -1.64,-1.64l0 -46.89c0,-1.09 0.55,-1.64 1.64,-1.64l11.62 0c0.73,0 1.23,0.36 1.49,1.09l8.27 27.55 0.47 0 8.34 -27.55c0.16,-0.73 0.66,-1.09 1.49,-1.09z"/>
  <path id="_4" class="fil0" d="M186.87 161.57l-25.51 0c-1.09,0 -1.64,-0.54 -1.64,-1.64l0 -46.89c0,-1.09 0.55,-1.64 1.64,-1.64l25.51 0c1.04,0 1.56,0.55 1.56,1.64l0 5.3c0,1.1 -0.52,1.64 -1.56,1.64l-16.3 0c-0.63,0 -0.94,0.29 -0.94,0.86l0 10.15c0,0.57 0.31,0.85 0.94,0.85l13.34 0c1.09,0 1.64,0.55 1.64,1.64l0 5.31c0,1.09 -0.55,1.64 -1.64,1.64l-13.34 0c-0.63,0 -0.94,0.28 -0.94,0.86l0 10.84c0,0.57 0.31,0.86 0.94,0.86l16.3 0c1.04,0 1.56,0.55 1.56,1.64l0 5.3c0,1.1 -0.52,1.64 -1.56,1.64z"/>
  <path id="_5" class="fil0" d="M205.37 161.57l-6.64 0c-1.09,0 -1.63,-0.54 -1.63,-1.64l0 -46.89c0,-1.09 0.54,-1.64 1.63,-1.64l18.58 0c4.05,0 7.23,1.12 9.52,3.36 2.28,2.23 3.43,5.38 3.43,9.44l0 6.08c0,5.88 -2.32,9.78 -6.95,11.71l0 0.31 8.35 17.4c0.47,1.25 0.03,1.87 -1.32,1.87l-6.32 0c-0.94,0 -1.62,-0.1 -2.03,-0.31 -0.42,-0.21 -0.76,-0.65 -1.02,-1.33l-7.8 -16.85 -5.23 0c-0.62,0 -0.93,0.29 -0.93,0.86l0 15.99c0,1.1 -0.55,1.64 -1.64,1.64zm2.49 -26.45l7.65 0c1.67,0 2.89,-0.35 3.67,-1.05 0.78,-0.7 1.17,-1.84 1.17,-3.4l0 -6.08c0,-1.62 -0.39,-2.79 -1.17,-3.51 -0.78,-0.73 -2,-1.1 -3.67,-1.1l-7.65 0c-0.57,0 -0.85,0.29 -0.85,0.86l0 13.42c0,0.57 0.28,0.86 0.85,0.86z"/>
  <path id="_6" class="fil0" d="M260.38 161.57l-8.51 0c-4.11,0 -7.28,-1.09 -9.52,-3.27 -2.23,-2.19 -3.35,-5.34 -3.35,-9.45l0 -24.73c0,-4.11 1.12,-7.26 3.35,-9.44 2.24,-2.19 5.41,-3.28 9.52,-3.28l8.51 0c4.06,0 7.22,1.11 9.48,3.32 2.26,2.21 3.39,5.34 3.39,9.4l0 3.67c0,1.14 -0.57,1.71 -1.71,1.71l-6.56 0c-1.09,0 -1.64,-0.57 -1.64,-1.71l0 -3.2c0,-1.67 -0.35,-2.85 -1.05,-3.55 -0.7,-0.71 -1.89,-1.06 -3.55,-1.06l-5.31 0c-1.61,0 -2.77,0.35 -3.47,1.06 -0.7,0.7 -1.05,1.88 -1.05,3.55l0 23.8c0,1.66 0.35,2.84 1.05,3.55 0.7,0.7 1.86,1.05 3.47,1.05l5.31 0c1.66,0 2.85,-0.35 3.55,-1.05 0.7,-0.71 1.05,-1.89 1.05,-3.55l0 -3.2c0,-1.15 0.55,-1.72 1.64,-1.72l6.56 0c1.14,0 1.71,0.57 1.71,1.72l0 3.66c0,4.06 -1.13,7.2 -3.39,9.41 -2.26,2.21 -5.42,3.31 -9.48,3.31z"/>
  <path id="_7" class="fil0" d="M292.06 113.04l0 46.89c0,1.1 -0.55,1.64 -1.64,1.64l-6.63 0c-1.09,0 -1.64,-0.54 -1.64,-1.64l0 -46.89c0,-1.09 0.55,-1.64 1.64,-1.64l6.63 0c1.09,0 1.64,0.55 1.64,1.64z"/>
  <path id="_8" class="fil0" d="M354.33 161.57l-6.64 0c-1.09,0 -1.63,-0.54 -1.63,-1.64l0 -46.89c0,-1.09 0.54,-1.64 1.63,-1.64l18.58 0c4.05,0 7.23,1.12 9.52,3.36 2.28,2.23 3.43,5.38 3.43,9.44l0 6.08c0,5.88 -2.32,9.78 -6.95,11.71l0 0.31 8.35 17.4c0.47,1.25 0.03,1.87 -1.32,1.87l-6.32 0c-0.94,0 -1.62,-0.1 -2.03,-0.31 -0.42,-0.21 -0.76,-0.65 -1.02,-1.33l-7.8 -16.85 -5.23 0c-0.62,0 -0.93,0.29 -0.93,0.86l0 15.99c0,1.1 -0.55,1.64 -1.64,1.64zm2.49 -26.45l7.65 0c1.67,0 2.89,-0.35 3.67,-1.05 0.78,-0.7 1.17,-1.84 1.17,-3.4l0 -6.08c0,-1.62 -0.39,-2.79 -1.17,-3.51 -0.78,-0.73 -2,-1.1 -3.67,-1.1l-7.65 0c-0.57,0 -0.85,0.29 -0.85,0.86l0 13.42c0,0.57 0.28,0.86 0.85,0.86z"/>
  <path id="_9" class="fil0" d="M399.04 113.04l0 46.89c0,1.1 -0.55,1.64 -1.64,1.64l-6.63 0c-1.09,0 -1.64,-0.54 -1.64,-1.64l0 -46.89c0,-1.09 0.55,-1.64 1.64,-1.64l6.63 0c1.09,0 1.64,0.55 1.64,1.64z"/>
  <path id="_10" class="fil0" d="M307.82 161.57l-7.49 0c-0.94,0 -1.25,-0.54 -0.94,-1.64l12.33 -46.89c0.37,-1.09 1.15,-1.64 2.34,-1.64l10.38 0c1.3,0 2.08,0.55 2.34,1.64l12.33 46.89c0.31,1.1 0,1.64 -0.93,1.64l-7.5 0c-0.57,0 -0.96,-0.11 -1.17,-0.35 -0.2,-0.23 -0.36,-0.66 -0.46,-1.29l-2.19 -8.58 -15.22 0 -2.18 8.58c-0.1,0.63 -0.27,1.06 -0.51,1.29 -0.23,0.24 -0.61,0.35 -1.13,0.35zm11.32 -40.73l-5.62 22.55 11.55 0 -5.62 -22.55 -0.31 0z"/>
  <path class="fil1" d="M327.91 106.55c-5.8,0.57 -11.71,1.09 -17.73,1.55l1.12 -4.26c5.27,-0.41 10.45,-0.87 15.54,-1.36l1.07 4.07z"/>
  <path class="fil1" d="M56.93 54.48l24.79 0c7.4,0 13.46,6.06 13.46,13.46l0 21.01c-19.27,-2.86 -36.68,-6.33 -51.72,-10.27l0 -10.74c0,-7.4 6.06,-13.46 13.47,-13.46z"/>
  <circle class="fil1" cx="69.32" cy="41.55" r="12.93"/>
  <path class="fil1" d="M122.73 47.58l35.96 0c10.74,0 19.53,8.79 19.53,19.54l0 29.73c-26.89,-1.32 -52.16,-3.63 -75.03,-6.75l0 -22.98c0,-10.75 8.79,-19.54 19.54,-19.54z"/>
  <circle class="fil1" cx="140.71" cy="28.83" r="18.76"/>
  <path class="fil1" d="M209.21 44.13l42.31 0c12.64,0 22.98,10.35 22.98,22.98l0 30.1c-14.32,0.58 -29.07,0.89 -44.13,0.89 -15.07,0 -29.81,-0.31 -44.14,-0.89l0 -30.1c0,-12.64 10.35,-22.98 22.98,-22.98z"/>
  <circle class="fil1" cx="230.37" cy="22.07" r="22.07"/>
  <path class="fil1" d="M302.05 47.58l35.96 0c10.74,0 19.53,8.79 19.53,19.54l0 22.98c-22.87,3.12 -48.13,5.43 -75.03,6.75l0 -29.73c0,-10.75 8.79,-19.54 19.54,-19.54z"/>
  <circle class="fil1" cx="320.03" cy="28.83" r="18.76"/>
  <path class="fil1" d="M379.02 54.48l24.79 0c7.4,0 13.46,6.06 13.46,13.46l0 10.74c-15.04,3.94 -32.44,7.41 -51.72,10.27l0 -21.01c0,-7.4 6.06,-13.46 13.47,-13.46z"/>
  <circle class="fil1" cx="391.41" cy="38.1" r="12.93"/>
  <path class="fil2" d="M460.74 62.35c-0.03,1.57 -0.33,3.13 -0.88,4.67 -36.65,20.67 -125.58,35.26 -229.49,35.26 -103.91,0 -192.84,-14.59 -229.49,-35.26 -0.55,-1.54 -0.85,-3.1 -0.88,-4.67 36.09,20.93 125.63,35.75 230.37,35.75 104.74,0 194.27,-14.82 230.37,-35.75z"/>
  <path class="fil3" d="M64.74 183.79l0 -0.35c0,-0.24 0.13,-0.36 0.37,-0.36l1.46 0c0.24,0 0.36,0.12 0.36,0.36l0 0.14c0,0.43 0.09,0.73 0.26,0.89 0.18,0.17 0.49,0.25 0.95,0.25l0.81 0c0.45,0 0.76,-0.09 0.94,-0.26 0.18,-0.18 0.27,-0.5 0.27,-0.97l0 -0.2c0,-0.34 -0.14,-0.59 -0.41,-0.77 -0.27,-0.18 -0.6,-0.29 -1.01,-0.32 -0.4,-0.04 -0.83,-0.1 -1.3,-0.2 -0.46,-0.1 -0.9,-0.22 -1.3,-0.38 -0.4,-0.15 -0.74,-0.46 -1.01,-0.91 -0.27,-0.46 -0.4,-1.04 -0.4,-1.75l0 -0.61c0,-0.89 0.25,-1.59 0.76,-2.08 0.5,-0.5 1.2,-0.74 2.1,-0.74l1.72 0c0.91,0 1.62,0.24 2.12,0.74 0.51,0.49 0.76,1.19 0.76,2.08l0 0.33c0,0.24 -0.12,0.36 -0.36,0.36l-1.46 0c-0.25,0 -0.37,-0.12 -0.37,-0.36l0 -0.1c0,-0.45 -0.08,-0.75 -0.26,-0.92 -0.17,-0.16 -0.48,-0.24 -0.94,-0.24l-0.68 0c-0.47,0 -0.79,0.09 -0.95,0.27 -0.17,0.18 -0.25,0.53 -0.25,1.04l0 0.33c0,0.54 0.47,0.85 1.41,0.93 0.98,0.08 1.85,0.28 2.6,0.59 0.41,0.17 0.74,0.48 1.01,0.92 0.27,0.44 0.41,1.01 0.41,1.7l0 0.59c0,0.89 -0.26,1.59 -0.76,2.08 -0.51,0.5 -1.21,0.74 -2.1,0.74l-1.88 0c-0.9,0 -1.6,-0.24 -2.11,-0.74 -0.5,-0.49 -0.76,-1.19 -0.76,-2.08z"/>
  <path id="_1_0" class="fil3" d="M74.23 176.34l0 -1.5c0,-0.23 0.11,-0.35 0.34,-0.35l1.5 0c0.23,0 0.35,0.11 0.35,0.33l0 1.52c0,0.23 -0.12,0.34 -0.35,0.34l-1.5 0c-0.23,0 -0.34,-0.11 -0.34,-0.34zm0 9.91l0 -8.07c0,-0.24 0.11,-0.36 0.34,-0.36l1.48 0c0.25,0 0.37,0.12 0.37,0.36l0 8.07c0,0.15 -0.03,0.25 -0.08,0.29 -0.05,0.05 -0.14,0.07 -0.27,0.07l-1.48 0c-0.24,0 -0.36,-0.12 -0.36,-0.36z"/>
  <path id="_2_1" class="fil3" d="M80.23 186.61l-1.47 0c-0.24,0 -0.36,-0.12 -0.36,-0.36l0 -8.07c0,-0.24 0.12,-0.36 0.36,-0.36l1.47 0c0.24,0 0.36,0.12 0.36,0.36l0 0.57 0.07 0c0.25,-0.62 0.81,-0.93 1.69,-0.93l0.55 0c1.8,0 2.71,0.94 2.71,2.81l0 5.62c0,0.24 -0.13,0.36 -0.38,0.36l-1.45 0c-0.24,0 -0.36,-0.12 -0.36,-0.36l0 -5.52c0,-0.36 -0.08,-0.63 -0.24,-0.78 -0.15,-0.16 -0.41,-0.23 -0.78,-0.23l-0.62 0c-0.8,0 -1.19,0.43 -1.19,1.31l0 5.22c0,0.24 -0.12,0.36 -0.36,0.36z"/>
  <path id="_3_2" class="fil3" d="M90.64 186.61l-0.71 0c-0.88,0 -1.55,-0.24 -2.01,-0.72 -0.45,-0.48 -0.68,-1.18 -0.68,-2.09l0 -3.17c0,-0.91 0.23,-1.6 0.68,-2.09 0.46,-0.48 1.13,-0.72 2.01,-0.72l0.71 0c0.36,0 0.69,0.08 1.02,0.23 0.32,0.16 0.54,0.39 0.67,0.7l0.07 0 0 -3.9c0,-0.24 0.12,-0.36 0.36,-0.36l1.46 0c0.25,0 0.37,0.12 0.37,0.36l0 11.4c0,0.24 -0.12,0.36 -0.37,0.36l-1.46 0c-0.24,0 -0.36,-0.12 -0.36,-0.36l0 -0.57 -0.07 0c-0.13,0.31 -0.35,0.54 -0.67,0.7 -0.33,0.15 -0.66,0.23 -1.02,0.23zm1.76 -3.2l0 -2.38c0,-0.88 -0.4,-1.31 -1.19,-1.31l-0.78 0c-0.37,0 -0.62,0.07 -0.77,0.23 -0.15,0.15 -0.23,0.42 -0.23,0.78l0 2.97c0,0.37 0.08,0.63 0.23,0.78 0.15,0.16 0.4,0.24 0.77,0.24l0.78 0c0.79,0 1.19,-0.44 1.19,-1.31z"/>
  <path id="_4_3" class="fil3" d="M96.57 176.34l0 -1.5c0,-0.23 0.11,-0.35 0.34,-0.35l1.5 0c0.23,0 0.35,0.11 0.35,0.33l0 1.52c0,0.23 -0.12,0.34 -0.35,0.34l-1.5 0c-0.23,0 -0.34,-0.11 -0.34,-0.34zm0 9.91l0 -8.07c0,-0.24 0.11,-0.36 0.34,-0.36l1.49 0c0.24,0 0.36,0.12 0.36,0.36l0 8.07c0,0.15 -0.03,0.25 -0.08,0.29 -0.05,0.05 -0.14,0.07 -0.27,0.07l-1.48 0c-0.24,0 -0.36,-0.12 -0.36,-0.36z"/>
  <path id="_5_4" class="fil3" d="M106.34 185.08l0 1.19c0,0.12 -0.02,0.21 -0.07,0.26 -0.05,0.06 -0.15,0.08 -0.29,0.08l-2.57 0c-0.9,0 -1.61,-0.24 -2.1,-0.72 -0.49,-0.48 -0.74,-1.18 -0.74,-2.09l0 -3.17c0,-0.91 0.25,-1.6 0.74,-2.09 0.49,-0.48 1.2,-0.72 2.1,-0.72l2.57 0c0.24,0 0.36,0.12 0.36,0.36l0 1.19c0,0.13 -0.02,0.22 -0.07,0.27 -0.05,0.05 -0.15,0.08 -0.29,0.08l-2.22 0c-0.36,0 -0.61,0.07 -0.77,0.23 -0.15,0.15 -0.23,0.42 -0.23,0.78l0 2.97c0,0.37 0.08,0.63 0.23,0.78 0.16,0.16 0.41,0.24 0.77,0.24l2.22 0c0.24,0 0.36,0.12 0.36,0.36z"/>
  <path id="_6_5" class="fil3" d="M110.91 186.61l-0.41 0c-0.91,0 -1.61,-0.24 -2.1,-0.72 -0.5,-0.48 -0.74,-1.18 -0.74,-2.09l0 -3.17c0,-0.91 0.24,-1.6 0.74,-2.09 0.49,-0.48 1.19,-0.72 2.1,-0.72l3.98 0c0.26,0 0.38,0.12 0.38,0.36l0 8.07c0,0.24 -0.12,0.36 -0.38,0.36l-1.45 0c-0.24,0 -0.36,-0.12 -0.36,-0.36l0 -0.57 -0.07 0c-0.12,0.31 -0.35,0.54 -0.67,0.7 -0.32,0.15 -0.66,0.23 -1.02,0.23zm1.76 -3.2l0 -3.5c0,-0.13 -0.07,-0.19 -0.2,-0.19l-1.63 0c-0.36,0 -0.62,0.07 -0.77,0.23 -0.15,0.15 -0.22,0.42 -0.22,0.78l0 2.97c0,0.37 0.07,0.63 0.22,0.78 0.15,0.16 0.41,0.24 0.77,0.24l0.64 0c0.8,0 1.19,-0.44 1.19,-1.31z"/>
  <path id="_7_6" class="fil3" d="M116.95 179.72l-0.69 0c-0.14,0 -0.23,-0.03 -0.29,-0.07 -0.05,-0.05 -0.07,-0.14 -0.07,-0.28l0 -1.19c0,-0.24 0.12,-0.36 0.36,-0.36l0.69 0c0.12,0 0.19,-0.06 0.19,-0.19l0 -1.64c0,-0.24 0.12,-0.36 0.38,-0.36l1.45 0c0.24,0 0.36,0.12 0.36,0.36l0 1.64c0,0.13 0.07,0.19 0.2,0.19l1.35 0c0.24,0 0.36,0.12 0.36,0.36l0 1.19c0,0.13 -0.02,0.22 -0.08,0.27 -0.05,0.05 -0.14,0.08 -0.28,0.08l-1.35 0c-0.13,0 -0.2,0.06 -0.2,0.19l0 3.81c0,0.35 0.08,0.61 0.24,0.76 0.16,0.16 0.42,0.24 0.79,0.24l0.69 0c0.24,0 0.36,0.12 0.36,0.36l0 1.19c0,0.12 -0.02,0.21 -0.07,0.26 -0.06,0.06 -0.15,0.08 -0.29,0.08l-1.05 0c-0.91,0 -1.61,-0.24 -2.11,-0.72 -0.5,-0.48 -0.75,-1.17 -0.75,-2.07l0 -3.91c0,-0.13 -0.07,-0.19 -0.19,-0.19z"/>
  <path id="_8_7" class="fil3" d="M127.05 186.61l-1.53 0c-0.91,0 -1.61,-0.24 -2.11,-0.72 -0.49,-0.48 -0.74,-1.18 -0.74,-2.09l0 -3.17c0,-0.91 0.25,-1.6 0.74,-2.09 0.5,-0.48 1.2,-0.72 2.11,-0.72l1.53 0c0.9,0 1.6,0.24 2.1,0.73 0.5,0.49 0.75,1.18 0.75,2.08l0 3.17c0,0.9 -0.25,1.59 -0.75,2.08 -0.5,0.49 -1.2,0.73 -2.1,0.73zm-1.21 -1.88l0.88 0c0.37,0 0.63,-0.07 0.79,-0.22 0.15,-0.15 0.23,-0.41 0.23,-0.78l0 -3.03c0,-0.37 -0.08,-0.63 -0.23,-0.78 -0.16,-0.15 -0.42,-0.22 -0.79,-0.22l-0.88 0c-0.36,0 -0.62,0.07 -0.77,0.22 -0.15,0.15 -0.23,0.41 -0.23,0.78l0 3.03c0,0.37 0.08,0.63 0.23,0.78 0.15,0.15 0.41,0.22 0.77,0.22z"/>
  <path id="_9_8" class="fil3" d="M138.64 186.61l-0.71 0c-0.89,0 -1.55,-0.24 -2.01,-0.72 -0.45,-0.48 -0.68,-1.18 -0.68,-2.09l0 -3.17c0,-0.91 0.23,-1.6 0.68,-2.09 0.46,-0.48 1.12,-0.72 2.01,-0.72l0.71 0c0.35,0 0.69,0.08 1.01,0.23 0.33,0.16 0.55,0.39 0.68,0.7l0.06 0 0 -3.9c0,-0.24 0.13,-0.36 0.37,-0.36l1.46 0c0.24,0 0.36,0.12 0.36,0.36l0 11.4c0,0.24 -0.12,0.36 -0.36,0.36l-1.46 0c-0.24,0 -0.37,-0.12 -0.37,-0.36l0 -0.57 -0.06 0c-0.13,0.31 -0.35,0.54 -0.68,0.7 -0.32,0.15 -0.66,0.23 -1.01,0.23zm1.75 -3.2l0 -2.38c0,-0.88 -0.39,-1.31 -1.18,-1.31l-0.78 0c-0.37,0 -0.63,0.07 -0.78,0.23 -0.15,0.15 -0.22,0.42 -0.22,0.78l0 2.97c0,0.37 0.07,0.63 0.22,0.78 0.15,0.16 0.41,0.24 0.78,0.24l0.78 0c0.79,0 1.18,-0.44 1.18,-1.31z"/>
  <path id="_10_9" class="fil3" d="M148.69 186.61l-1.54 0c-0.91,0 -1.61,-0.24 -2.1,-0.72 -0.49,-0.48 -0.74,-1.18 -0.74,-2.09l0 -3.17c0,-0.91 0.25,-1.6 0.74,-2.09 0.49,-0.48 1.19,-0.72 2.1,-0.72l1.54 0c0.89,0 1.59,0.24 2.09,0.73 0.5,0.49 0.75,1.18 0.75,2.08l0 3.17c0,0.9 -0.25,1.59 -0.75,2.08 -0.5,0.49 -1.2,0.73 -2.09,0.73zm-1.21 -1.88l0.88 0c0.37,0 0.63,-0.07 0.78,-0.22 0.16,-0.15 0.24,-0.41 0.24,-0.78l0 -3.03c0,-0.37 -0.08,-0.63 -0.24,-0.78 -0.15,-0.15 -0.41,-0.22 -0.78,-0.22l-0.88 0c-0.37,0 -0.63,0.07 -0.77,0.22 -0.15,0.15 -0.23,0.41 -0.23,0.78l0 3.03c0,0.37 0.08,0.63 0.23,0.78 0.14,0.15 0.4,0.22 0.77,0.22z"/>
  <path id="_11" class="fil3" d="M156.58 186.61l-3.27 0c-0.23,0 -0.35,-0.12 -0.35,-0.36l0 -1.1c0,-0.13 0.03,-0.22 0.07,-0.27 0.05,-0.05 0.14,-0.08 0.28,-0.08l2.88 0c0.56,0 0.84,-0.17 0.84,-0.52l0 -0.08c0,-0.28 -0.23,-0.54 -0.7,-0.79l-1.71 -0.95c-0.59,-0.3 -1.02,-0.62 -1.29,-0.97 -0.28,-0.34 -0.42,-0.79 -0.42,-1.33 0,-0.8 0.21,-1.39 0.64,-1.77 0.42,-0.38 1.09,-0.57 2,-0.57l2.88 0c0.23,0 0.34,0.12 0.34,0.36l0 1.12c0,0.13 -0.02,0.22 -0.07,0.27 -0.04,0.05 -0.13,0.08 -0.27,0.08l-2.4 0c-0.56,0 -0.84,0.14 -0.84,0.43l0 0.08c0,0.26 0.24,0.52 0.74,0.78l1.74 1.03c0.6,0.33 1.02,0.66 1.26,1 0.24,0.33 0.36,0.78 0.36,1.33 0,1.54 -0.9,2.31 -2.71,2.31z"/>
  <path id="_12" class="fil3" d="M170.77 186.61l-5.64 0c-0.24,0 -0.36,-0.12 -0.36,-0.36l0 -10.36c0,-0.24 0.12,-0.36 0.36,-0.36l5.64 0c0.23,0 0.35,0.12 0.35,0.36l0 1.17c0,0.24 -0.12,0.36 -0.35,0.36l-3.6 0c-0.14,0 -0.21,0.07 -0.21,0.19l0 2.24c0,0.13 0.07,0.19 0.21,0.19l2.95 0c0.24,0 0.36,0.12 0.36,0.37l0 1.17c0,0.24 -0.12,0.36 -0.36,0.36l-2.95 0c-0.14,0 -0.21,0.06 -0.21,0.19l0 2.4c0,0.12 0.07,0.19 0.21,0.19l3.6 0c0.23,0 0.35,0.12 0.35,0.36l0 1.17c0,0.24 -0.12,0.36 -0.35,0.36z"/>
  <path id="_13" class="fil3" d="M174.69 186.61l-1.47 0c-0.24,0 -0.36,-0.12 -0.36,-0.36l0 -8.07c0,-0.24 0.12,-0.36 0.36,-0.36l1.47 0c0.24,0 0.36,0.12 0.36,0.36l0 0.57 0.07 0c0.13,-0.28 0.37,-0.5 0.69,-0.67 0.33,-0.17 0.71,-0.26 1.13,-0.26l0.49 0c1,0 1.72,0.37 2.15,1.1 0.39,-0.73 1.07,-1.1 2.02,-1.1l0.5 0c0.88,0 1.55,0.24 2.01,0.72 0.45,0.49 0.68,1.18 0.68,2.09l0 5.62c0,0.24 -0.12,0.36 -0.36,0.36l-1.47 0c-0.24,0 -0.36,-0.12 -0.36,-0.36l0 -5.52c0,-0.36 -0.08,-0.63 -0.23,-0.78 -0.14,-0.16 -0.4,-0.23 -0.77,-0.23l-0.43 0c-0.79,0 -1.19,0.44 -1.19,1.32l0 5.21c0,0.24 -0.13,0.36 -0.38,0.36l-1.45 0c-0.24,0 -0.36,-0.12 -0.36,-0.36l0 -5.52c0,-0.36 -0.08,-0.63 -0.23,-0.78 -0.16,-0.16 -0.42,-0.23 -0.79,-0.23l-0.53 0c-0.8,0 -1.19,0.43 -1.19,1.31l0 5.22c0,0.24 -0.12,0.36 -0.36,0.36z"/>
  <path id="_14" class="fil3" d="M188.44 188.96l-1.46 0c-0.24,0 -0.36,-0.12 -0.36,-0.35l0 -10.43c0,-0.24 0.12,-0.36 0.36,-0.36l1.46 0c0.24,0 0.36,0.12 0.36,0.36l0 0.57 0.07 0c0.13,-0.31 0.35,-0.54 0.68,-0.7 0.32,-0.15 0.66,-0.23 1.01,-0.23l0.71 0c0.89,0 1.56,0.24 2.01,0.72 0.45,0.49 0.68,1.18 0.68,2.09l0 3.17c0,0.91 -0.23,1.61 -0.68,2.09 -0.45,0.48 -1.12,0.72 -2.01,0.72l-0.71 0c-0.35,0 -0.69,-0.08 -1.01,-0.23 -0.33,-0.16 -0.55,-0.39 -0.68,-0.7l-0.07 0 0 2.93c0,0.23 -0.12,0.35 -0.36,0.35zm1.55 -4.24l0.76 0c0.37,0 0.63,-0.08 0.79,-0.24 0.15,-0.15 0.23,-0.41 0.23,-0.78l0 -2.97c0,-0.36 -0.08,-0.63 -0.23,-0.78 -0.16,-0.16 -0.42,-0.23 -0.79,-0.23l-0.76 0c-0.79,0 -1.19,0.43 -1.19,1.31l0 2.38c0,0.87 0.4,1.31 1.19,1.31z"/>
  <path id="_15" class="fil3" d="M197.51 186.61l-1.46 0c-0.25,0 -0.37,-0.12 -0.37,-0.36l0 -8.07c0,-0.24 0.12,-0.36 0.37,-0.36l1.46 0c0.24,0 0.36,0.12 0.36,0.36l0 0.59 0.07 0c0.13,-0.31 0.35,-0.55 0.68,-0.71 0.32,-0.16 0.66,-0.24 1.01,-0.24l0.62 0c0.23,0 0.35,0.12 0.35,0.36l0 1.19c0,0.14 -0.03,0.23 -0.08,0.29 -0.05,0.05 -0.14,0.07 -0.27,0.06l-1.19 0c-0.79,0 -1.19,0.44 -1.19,1.34l0 5.19c0,0.24 -0.12,0.36 -0.36,0.36z"/>
  <path id="_16" class="fil3" d="M208.18 186.61l-3.81 0c-0.91,0 -1.61,-0.24 -2.1,-0.72 -0.49,-0.48 -0.74,-1.18 -0.74,-2.09l0 -3.17c0,-0.91 0.25,-1.6 0.74,-2.09 0.49,-0.48 1.19,-0.72 2.1,-0.72l1.36 0c0.91,0 1.61,0.24 2.11,0.72 0.49,0.49 0.74,1.18 0.74,2.09l0 2.19c0,0.24 -0.12,0.36 -0.36,0.36l-4.33 0c-0.14,0 -0.21,0.06 -0.21,0.19l0 0.38c0,0.36 0.08,0.61 0.24,0.77 0.15,0.15 0.41,0.23 0.78,0.23l3.48 0c0.24,0 0.36,0.13 0.36,0.38l0 1.14c0,0.12 -0.02,0.21 -0.07,0.26 -0.05,0.06 -0.15,0.08 -0.29,0.08zm-4.29 -4.89l2.34 0c0.13,0 0.19,-0.07 0.19,-0.19l0 -0.83c0,-0.37 -0.07,-0.63 -0.22,-0.78 -0.15,-0.15 -0.41,-0.22 -0.78,-0.22l-0.72 0c-0.37,0 -0.63,0.07 -0.78,0.22 -0.14,0.15 -0.22,0.41 -0.22,0.78l0 0.83c0,0.12 0.06,0.19 0.19,0.19z"/>
  <path id="_17" class="fil3" d="M213.32 186.22l-0.57 0c-0.88,0 -1.55,-0.25 -2.01,-0.73 -0.45,-0.48 -0.68,-1.18 -0.68,-2.08l0 -2.78c0,-0.91 0.25,-1.6 0.74,-2.09 0.5,-0.48 1.2,-0.72 2.11,-0.72l3.98 0c0.25,0 0.38,0.12 0.38,0.36l0 8.5c0,0.9 -0.25,1.59 -0.75,2.07 -0.5,0.48 -1.2,0.72 -2.1,0.72l-3.31 0c-0.13,0 -0.23,-0.02 -0.28,-0.07 -0.05,-0.06 -0.08,-0.14 -0.08,-0.27l0 -1.19c0,-0.24 0.12,-0.36 0.36,-0.36l2.95 0c0.37,0 0.63,-0.08 0.79,-0.23 0.15,-0.16 0.23,-0.42 0.23,-0.77l0 -1.31 -0.07 0c-0.13,0.31 -0.35,0.54 -0.67,0.7 -0.33,0.17 -0.66,0.25 -1.02,0.25zm1.76 -3.21l0 -3.1c0,-0.13 -0.07,-0.19 -0.21,-0.19l-1.62 0c-0.37,0 -0.62,0.07 -0.77,0.23 -0.15,0.15 -0.23,0.42 -0.23,0.78l0 2.57c0,0.37 0.08,0.63 0.23,0.78 0.15,0.15 0.4,0.22 0.77,0.22l0.64 0c0.79,0 1.19,-0.43 1.19,-1.29z"/>
  <path id="_18" class="fil3" d="M222.25 186.61l-0.41 0c-0.91,0 -1.61,-0.24 -2.11,-0.72 -0.49,-0.48 -0.74,-1.18 -0.74,-2.09l0 -3.17c0,-0.91 0.25,-1.6 0.74,-2.09 0.5,-0.48 1.2,-0.72 2.11,-0.72l3.98 0c0.25,0 0.38,0.12 0.38,0.36l0 8.07c0,0.24 -0.13,0.36 -0.38,0.36l-1.45 0c-0.24,0 -0.36,-0.12 -0.36,-0.36l0 -0.57 -0.07 0c-0.13,0.31 -0.35,0.54 -0.67,0.7 -0.32,0.15 -0.66,0.23 -1.02,0.23zm1.76 -3.2l0 -3.5c0,-0.13 -0.07,-0.19 -0.21,-0.19l-1.62 0c-0.37,0 -0.63,0.07 -0.77,0.23 -0.15,0.15 -0.23,0.42 -0.23,0.78l0 2.97c0,0.37 0.08,0.63 0.23,0.78 0.14,0.16 0.4,0.24 0.77,0.24l0.64 0c0.79,0 1.19,-0.44 1.19,-1.31z"/>
  <path id="_19" class="fil3" d="M231.32 186.61l-0.71 0c-0.88,0 -1.55,-0.24 -2.01,-0.72 -0.45,-0.48 -0.68,-1.18 -0.68,-2.09l0 -3.17c0,-0.91 0.23,-1.6 0.68,-2.09 0.46,-0.48 1.13,-0.72 2.01,-0.72l0.71 0c0.36,0 0.69,0.08 1.02,0.23 0.32,0.16 0.54,0.39 0.67,0.7l0.07 0 0 -3.9c0,-0.24 0.12,-0.36 0.36,-0.36l1.46 0c0.25,0 0.37,0.12 0.37,0.36l0 11.4c0,0.24 -0.12,0.36 -0.37,0.36l-1.46 0c-0.24,0 -0.36,-0.12 -0.36,-0.36l0 -0.57 -0.07 0c-0.13,0.31 -0.35,0.54 -0.67,0.7 -0.33,0.15 -0.66,0.23 -1.02,0.23zm1.76 -3.2l0 -2.38c0,-0.88 -0.4,-1.31 -1.19,-1.31l-0.78 0c-0.37,0 -0.62,0.07 -0.77,0.23 -0.15,0.15 -0.23,0.42 -0.23,0.78l0 2.97c0,0.37 0.08,0.63 0.23,0.78 0.15,0.16 0.4,0.24 0.77,0.24l0.78 0c0.79,0 1.19,-0.44 1.19,-1.31z"/>
  <path id="_20" class="fil3" d="M241.37 186.61l-1.53 0c-0.91,0 -1.61,-0.24 -2.11,-0.72 -0.49,-0.48 -0.74,-1.18 -0.74,-2.09l0 -3.17c0,-0.91 0.25,-1.6 0.74,-2.09 0.5,-0.48 1.2,-0.72 2.11,-0.72l1.53 0c0.9,0 1.59,0.24 2.09,0.73 0.5,0.49 0.75,1.18 0.75,2.08l0 3.17c0,0.9 -0.25,1.59 -0.75,2.08 -0.5,0.49 -1.19,0.73 -2.09,0.73zm-1.21 -1.88l0.88 0c0.37,0 0.63,-0.07 0.79,-0.22 0.15,-0.15 0.23,-0.41 0.23,-0.78l0 -3.03c0,-0.37 -0.08,-0.63 -0.23,-0.78 -0.16,-0.15 -0.42,-0.22 -0.79,-0.22l-0.88 0c-0.36,0 -0.62,0.07 -0.77,0.22 -0.15,0.15 -0.23,0.41 -0.23,0.78l0 3.03c0,0.37 0.08,0.63 0.23,0.78 0.15,0.15 0.41,0.22 0.77,0.22z"/>
  <path id="_21" class="fil3" d="M249.27 186.61l-3.28 0c-0.23,0 -0.34,-0.12 -0.34,-0.36l0 -1.1c0,-0.13 0.02,-0.22 0.06,-0.27 0.05,-0.05 0.14,-0.08 0.28,-0.08l2.88 0c0.56,0 0.84,-0.17 0.84,-0.52l0 -0.08c0,-0.28 -0.23,-0.54 -0.7,-0.79l-1.71 -0.95c-0.59,-0.3 -1.02,-0.62 -1.29,-0.97 -0.28,-0.34 -0.42,-0.79 -0.42,-1.33 0,-0.8 0.22,-1.39 0.64,-1.77 0.43,-0.38 1.09,-0.57 2,-0.57l2.88 0c0.23,0 0.35,0.12 0.35,0.36l0 1.12c0,0.13 -0.03,0.22 -0.07,0.27 -0.05,0.05 -0.14,0.08 -0.28,0.08l-2.4 0c-0.56,0 -0.84,0.14 -0.84,0.43l0 0.08c0,0.26 0.25,0.52 0.74,0.78l1.74 1.03c0.6,0.33 1.02,0.66 1.26,1 0.24,0.33 0.36,0.78 0.36,1.33 0,1.54 -0.9,2.31 -2.7,2.31z"/>
  <path id="_22" class="fil3" d="M259.11 186.61l-1.47 0c-0.24,0 -0.36,-0.12 -0.36,-0.36l0 -8.07c0,-0.24 0.12,-0.36 0.36,-0.36l1.47 0c0.24,0 0.36,0.12 0.36,0.36l0 0.57 0.07 0c0.25,-0.62 0.82,-0.93 1.69,-0.93l0.55 0c1.81,0 2.71,0.94 2.71,2.81l0 5.62c0,0.24 -0.13,0.36 -0.38,0.36l-1.45 0c-0.24,0 -0.36,-0.12 -0.36,-0.36l0 -5.52c0,-0.36 -0.08,-0.63 -0.23,-0.78 -0.16,-0.16 -0.42,-0.23 -0.79,-0.23l-0.62 0c-0.79,0 -1.19,0.43 -1.19,1.31l0 5.22c0,0.24 -0.12,0.36 -0.36,0.36z"/>
  <path id="_23" class="fil3" d="M270.51 186.61l-1.54 0c-0.91,0 -1.61,-0.24 -2.1,-0.72 -0.5,-0.48 -0.74,-1.18 -0.74,-2.09l0 -3.17c0,-0.91 0.24,-1.6 0.74,-2.09 0.49,-0.48 1.19,-0.72 2.1,-0.72l1.54 0c0.89,0 1.59,0.24 2.09,0.73 0.5,0.49 0.75,1.18 0.75,2.08l0 3.17c0,0.9 -0.25,1.59 -0.75,2.08 -0.5,0.49 -1.2,0.73 -2.09,0.73zm-1.21 -1.88l0.88 0c0.37,0 0.63,-0.07 0.78,-0.22 0.16,-0.15 0.24,-0.41 0.24,-0.78l0 -3.03c0,-0.37 -0.08,-0.63 -0.24,-0.78 -0.15,-0.15 -0.41,-0.22 -0.78,-0.22l-0.88 0c-0.37,0 -0.63,0.07 -0.78,0.22 -0.15,0.15 -0.22,0.41 -0.22,0.78l0 3.03c0,0.37 0.07,0.63 0.22,0.78 0.15,0.15 0.41,0.22 0.78,0.22z"/>
  <path id="_24" class="fil3" d="M283.59 186.61l-1.88 0c-0.91,0 -1.61,-0.24 -2.1,-0.72 -0.5,-0.48 -0.74,-1.18 -0.74,-2.09l0 -5.46c0,-0.91 0.24,-1.61 0.74,-2.09 0.49,-0.48 1.19,-0.72 2.1,-0.72l1.88 0c0.9,0 1.6,0.24 2.1,0.73 0.5,0.49 0.75,1.18 0.75,2.08l0 0.81c0,0.25 -0.13,0.38 -0.38,0.38l-1.45 0c-0.24,0 -0.36,-0.13 -0.36,-0.38l0 -0.71c0,-0.37 -0.08,-0.63 -0.24,-0.78 -0.15,-0.16 -0.41,-0.24 -0.78,-0.24l-1.17 0c-0.36,0 -0.62,0.08 -0.77,0.24 -0.16,0.15 -0.23,0.41 -0.23,0.78l0 5.26c0,0.37 0.07,0.63 0.23,0.78 0.15,0.16 0.41,0.24 0.77,0.24l1.17 0c0.37,0 0.63,-0.08 0.78,-0.24 0.16,-0.15 0.24,-0.41 0.24,-0.78l0 -0.71c0,-0.25 0.12,-0.38 0.36,-0.38l1.45 0c0.25,0 0.38,0.13 0.38,0.38l0 0.81c0,0.9 -0.25,1.59 -0.75,2.08 -0.5,0.49 -1.2,0.73 -2.1,0.73z"/>
  <path id="_25" class="fil3" d="M292.35 186.61l-1.54 0c-0.9,0 -1.6,-0.24 -2.1,-0.72 -0.49,-0.48 -0.74,-1.18 -0.74,-2.09l0 -3.17c0,-0.91 0.25,-1.6 0.74,-2.09 0.5,-0.48 1.2,-0.72 2.1,-0.72l1.54 0c0.9,0 1.59,0.24 2.09,0.73 0.5,0.49 0.75,1.18 0.75,2.08l0 3.17c0,0.9 -0.25,1.59 -0.75,2.08 -0.5,0.49 -1.19,0.73 -2.09,0.73zm-1.21 -1.88l0.88 0c0.37,0 0.63,-0.07 0.79,-0.22 0.15,-0.15 0.23,-0.41 0.23,-0.78l0 -3.03c0,-0.37 -0.08,-0.63 -0.23,-0.78 -0.16,-0.15 -0.42,-0.22 -0.79,-0.22l-0.88 0c-0.37,0 -0.62,0.07 -0.77,0.22 -0.15,0.15 -0.23,0.41 -0.23,0.78l0 3.03c0,0.37 0.08,0.63 0.23,0.78 0.15,0.15 0.4,0.22 0.77,0.22z"/>
  <path id="_26" class="fil3" d="M298.75 186.61l-1.47 0c-0.24,0 -0.36,-0.12 -0.36,-0.36l0 -8.07c0,-0.24 0.12,-0.36 0.36,-0.36l1.47 0c0.24,0 0.36,0.12 0.36,0.36l0 0.57 0.07 0c0.13,-0.28 0.37,-0.5 0.69,-0.67 0.33,-0.17 0.71,-0.26 1.13,-0.26l0.49 0c1,0 1.71,0.37 2.15,1.1 0.39,-0.73 1.06,-1.1 2.02,-1.1l0.5 0c0.88,0 1.55,0.24 2.01,0.72 0.45,0.49 0.68,1.18 0.68,2.09l0 5.62c0,0.24 -0.12,0.36 -0.36,0.36l-1.47 0c-0.24,0 -0.36,-0.12 -0.36,-0.36l0 -5.52c0,-0.36 -0.08,-0.63 -0.23,-0.78 -0.15,-0.16 -0.4,-0.23 -0.77,-0.23l-0.43 0c-0.8,0 -1.19,0.44 -1.19,1.32l0 5.21c0,0.24 -0.13,0.36 -0.38,0.36l-1.45 0c-0.24,0 -0.36,-0.12 -0.36,-0.36l0 -5.52c0,-0.36 -0.08,-0.63 -0.23,-0.78 -0.16,-0.16 -0.42,-0.23 -0.79,-0.23l-0.53 0c-0.8,0 -1.19,0.43 -1.19,1.31l0 5.22c0,0.24 -0.12,0.36 -0.36,0.36z"/>
  <path id="_27" class="fil3" d="M314.59 174.49l1.69 0c0.12,0 0.2,0.04 0.24,0.11 0.03,0.06 0.01,0.15 -0.07,0.24l-1.4 1.65c-0.12,0.15 -0.28,0.23 -0.48,0.23l-1.1 0c-0.23,0 -0.29,-0.12 -0.17,-0.37l0.77 -1.53c0.12,-0.22 0.29,-0.33 0.52,-0.33zm2.57 12.12l-3.81 0c-0.91,0 -1.61,-0.24 -2.11,-0.72 -0.49,-0.48 -0.74,-1.18 -0.74,-2.09l0 -3.17c0,-0.91 0.25,-1.6 0.74,-2.09 0.5,-0.48 1.2,-0.72 2.11,-0.72l1.36 0c0.91,0 1.61,0.24 2.1,0.72 0.5,0.49 0.74,1.18 0.74,2.09l0 2.19c0,0.24 -0.12,0.36 -0.36,0.36l-4.33 0c-0.13,0 -0.2,0.06 -0.2,0.19l0 0.38c0,0.36 0.08,0.61 0.23,0.77 0.16,0.15 0.42,0.23 0.78,0.23l3.49 0c0.24,0 0.36,0.13 0.36,0.38l0 1.14c0,0.12 -0.03,0.21 -0.08,0.26 -0.05,0.06 -0.15,0.08 -0.28,0.08zm-4.3 -4.89l2.35 0c0.13,0 0.19,-0.07 0.19,-0.19l0 -0.83c0,-0.37 -0.08,-0.63 -0.23,-0.78 -0.14,-0.15 -0.4,-0.22 -0.77,-0.22l-0.73 0c-0.36,0 -0.62,0.07 -0.77,0.22 -0.15,0.15 -0.22,0.41 -0.22,0.78l0 0.83c0,0.12 0.06,0.19 0.18,0.19z"/>
  <path id="_28" class="fil3" d="M321.02 186.61l-1.47 0c-0.24,0 -0.36,-0.12 -0.36,-0.36l0 -8.07c0,-0.24 0.12,-0.36 0.36,-0.36l1.47 0c0.24,0 0.36,0.12 0.36,0.36l0 0.59 0.07 0c0.13,-0.31 0.35,-0.55 0.67,-0.71 0.32,-0.16 0.66,-0.24 1.02,-0.24l0.62 0c0.23,0 0.34,0.12 0.34,0.36l0 1.19c0,0.14 -0.02,0.23 -0.07,0.29 -0.05,0.05 -0.14,0.07 -0.27,0.06l-1.19 0c-0.79,0 -1.19,0.44 -1.19,1.34l0 5.19c0,0.24 -0.12,0.36 -0.36,0.36z"/>
  <path id="_29" class="fil3" d="M330.81 185.08l0 1.19c0,0.12 -0.02,0.21 -0.08,0.26 -0.05,0.06 -0.14,0.08 -0.28,0.08l-2.57 0c-0.91,0 -1.61,-0.24 -2.1,-0.72 -0.5,-0.48 -0.74,-1.18 -0.74,-2.09l0 -3.17c0,-0.91 0.24,-1.6 0.74,-2.09 0.49,-0.48 1.19,-0.72 2.1,-0.72l2.57 0c0.24,0 0.36,0.12 0.36,0.36l0 1.19c0,0.13 -0.02,0.22 -0.08,0.27 -0.05,0.05 -0.14,0.08 -0.28,0.08l-2.23 0c-0.35,0 -0.61,0.07 -0.76,0.23 -0.16,0.15 -0.23,0.42 -0.23,0.78l0 2.97c0,0.37 0.07,0.63 0.23,0.78 0.15,0.16 0.41,0.24 0.76,0.24l2.23 0c0.24,0 0.36,0.12 0.36,0.36z"/>
  <path id="_30" class="fil3" d="M332.38 176.34l0 -1.5c0,-0.23 0.11,-0.35 0.34,-0.35l1.5 0c0.23,0 0.35,0.11 0.35,0.33l0 1.52c0,0.23 -0.12,0.34 -0.35,0.34l-1.5 0c-0.23,0 -0.34,-0.11 -0.34,-0.34zm0 9.91l0 -8.07c0,-0.24 0.11,-0.36 0.34,-0.36l1.49 0c0.24,0 0.36,0.12 0.36,0.36l0 8.07c0,0.15 -0.03,0.25 -0.08,0.29 -0.05,0.05 -0.14,0.07 -0.27,0.07l-1.48 0c-0.24,0 -0.36,-0.12 -0.36,-0.36z"/>
  <path id="_31" class="fil3" d="M340.76 186.61l-1.54 0c-0.9,0 -1.61,-0.24 -2.1,-0.72 -0.49,-0.48 -0.74,-1.18 -0.74,-2.09l0 -3.17c0,-0.91 0.25,-1.6 0.74,-2.09 0.49,-0.48 1.2,-0.72 2.1,-0.72l1.54 0c0.9,0 1.59,0.24 2.09,0.73 0.5,0.49 0.75,1.18 0.75,2.08l0 3.17c0,0.9 -0.25,1.59 -0.75,2.08 -0.5,0.49 -1.19,0.73 -2.09,0.73zm-1.21 -1.88l0.88 0c0.37,0 0.63,-0.07 0.79,-0.22 0.15,-0.15 0.23,-0.41 0.23,-0.78l0 -3.03c0,-0.37 -0.08,-0.63 -0.23,-0.78 -0.16,-0.15 -0.42,-0.22 -0.79,-0.22l-0.88 0c-0.37,0 -0.62,0.07 -0.77,0.22 -0.15,0.15 -0.23,0.41 -0.23,0.78l0 3.03c0,0.37 0.08,0.63 0.23,0.78 0.15,0.15 0.4,0.22 0.77,0.22z"/>
  <path id="_32" class="fil3" d="M355.6 186.61l-3.81 0c-0.91,0 -1.61,-0.24 -2.1,-0.72 -0.5,-0.48 -0.74,-1.18 -0.74,-2.09l0 -3.17c0,-0.91 0.24,-1.6 0.74,-2.09 0.49,-0.48 1.19,-0.72 2.1,-0.72l1.36 0c0.91,0 1.61,0.24 2.11,0.72 0.49,0.49 0.74,1.18 0.74,2.09l0 2.19c0,0.24 -0.12,0.36 -0.36,0.36l-4.33 0c-0.14,0 -0.21,0.06 -0.21,0.19l0 0.38c0,0.36 0.08,0.61 0.24,0.77 0.15,0.15 0.41,0.23 0.78,0.23l3.48 0c0.24,0 0.36,0.13 0.36,0.38l0 1.14c0,0.12 -0.02,0.21 -0.07,0.26 -0.05,0.06 -0.15,0.08 -0.29,0.08zm-4.29 -4.89l2.34 0c0.13,0 0.19,-0.07 0.19,-0.19l0 -0.83c0,-0.37 -0.07,-0.63 -0.22,-0.78 -0.15,-0.15 -0.41,-0.22 -0.78,-0.22l-0.72 0c-0.37,0 -0.63,0.07 -0.78,0.22 -0.15,0.15 -0.22,0.41 -0.22,0.78l0 0.83c0,0.12 0.06,0.19 0.19,0.19z"/>
  <path id="_33" class="fil3" d="M361.33 183.79l0 -0.35c0,-0.24 0.12,-0.36 0.36,-0.36l1.46 0c0.24,0 0.37,0.12 0.37,0.36l0 0.14c0,0.43 0.08,0.73 0.25,0.89 0.18,0.17 0.49,0.25 0.95,0.25l0.81 0c0.45,0 0.76,-0.09 0.94,-0.26 0.18,-0.18 0.27,-0.5 0.27,-0.97l0 -0.2c0,-0.34 -0.14,-0.59 -0.41,-0.77 -0.27,-0.18 -0.6,-0.29 -1,-0.32 -0.41,-0.04 -0.84,-0.1 -1.31,-0.2 -0.46,-0.1 -0.89,-0.22 -1.3,-0.38 -0.4,-0.15 -0.74,-0.46 -1.01,-0.91 -0.27,-0.46 -0.4,-1.04 -0.4,-1.75l0 -0.61c0,-0.89 0.25,-1.59 0.76,-2.08 0.5,-0.5 1.2,-0.74 2.1,-0.74l1.72 0c0.91,0 1.62,0.24 2.13,0.74 0.5,0.49 0.75,1.19 0.75,2.08l0 0.33c0,0.24 -0.12,0.36 -0.36,0.36l-1.46 0c-0.25,0 -0.37,-0.12 -0.37,-0.36l0 -0.1c0,-0.45 -0.08,-0.75 -0.25,-0.92 -0.18,-0.16 -0.49,-0.24 -0.95,-0.24l-0.67 0c-0.48,0 -0.79,0.09 -0.96,0.27 -0.17,0.18 -0.25,0.53 -0.25,1.04l0 0.33c0,0.54 0.47,0.85 1.41,0.93 0.98,0.08 1.85,0.28 2.61,0.59 0.4,0.17 0.73,0.48 1,0.92 0.27,0.44 0.41,1.01 0.41,1.7l0 0.59c0,0.89 -0.25,1.59 -0.76,2.08 -0.51,0.5 -1.21,0.74 -2.1,0.74l-1.88 0c-0.9,0 -1.6,-0.24 -2.11,-0.74 -0.5,-0.49 -0.75,-1.19 -0.75,-2.08z"/>
  <path id="_34" class="fil3" d="M377.2 186.61l-3.81 0c-0.9,0 -1.61,-0.24 -2.1,-0.72 -0.49,-0.48 -0.74,-1.18 -0.74,-2.09l0 -3.17c0,-0.91 0.25,-1.6 0.74,-2.09 0.49,-0.48 1.2,-0.72 2.1,-0.72l1.37 0c0.9,0 1.6,0.24 2.1,0.72 0.49,0.49 0.74,1.18 0.74,2.09l0 2.19c0,0.24 -0.12,0.36 -0.36,0.36l-4.33 0c-0.14,0 -0.21,0.06 -0.21,0.19l0 0.38c0,0.36 0.08,0.61 0.24,0.77 0.15,0.15 0.41,0.23 0.78,0.23l3.48 0c0.24,0 0.36,0.13 0.36,0.38l0 1.14c0,0.12 -0.02,0.21 -0.07,0.26 -0.05,0.06 -0.15,0.08 -0.29,0.08zm-4.29 -4.89l2.35 0c0.12,0 0.18,-0.07 0.18,-0.19l0 -0.83c0,-0.37 -0.07,-0.63 -0.22,-0.78 -0.15,-0.15 -0.41,-0.22 -0.78,-0.22l-0.72 0c-0.37,0 -0.63,0.07 -0.77,0.22 -0.15,0.15 -0.23,0.41 -0.23,0.78l0 0.83c0,0.12 0.06,0.19 0.19,0.19z"/>
  <path id="_35" class="fil3" d="M381.06 186.61l-1.46 0c-0.24,0 -0.36,-0.12 -0.36,-0.36l0 -8.07c0,-0.24 0.12,-0.36 0.36,-0.36l1.46 0c0.25,0 0.37,0.12 0.37,0.36l0 0.59 0.07 0c0.12,-0.31 0.35,-0.55 0.67,-0.71 0.32,-0.16 0.66,-0.24 1.01,-0.24l0.63 0c0.23,0 0.34,0.12 0.34,0.36l0 1.19c0,0.14 -0.03,0.23 -0.08,0.29 -0.05,0.05 -0.14,0.07 -0.26,0.06l-1.19 0c-0.8,0 -1.19,0.44 -1.19,1.34l0 5.19c0,0.24 -0.12,0.36 -0.37,0.36z"/>
  <path id="_36" class="fil3" d="M384.87 177.82l1.52 0c0.23,0 0.37,0.12 0.42,0.36l1.48 6.48 0.12 0 1.45 -6.48c0.04,-0.24 0.19,-0.36 0.43,-0.36l1.52 0c0.24,0 0.32,0.12 0.25,0.36l-2.17 8.05c-0.04,0.26 -0.2,0.38 -0.46,0.38l-2.19 0c-0.24,0 -0.4,-0.12 -0.47,-0.38l-2.15 -8.05c-0.07,-0.24 0.01,-0.36 0.25,-0.36z"/>
  <path id="_37" class="fil3" d="M393.41 176.34l0 -1.5c0,-0.23 0.11,-0.35 0.34,-0.35l1.5 0c0.23,0 0.35,0.11 0.35,0.33l0 1.52c0,0.23 -0.12,0.34 -0.35,0.34l-1.5 0c-0.23,0 -0.34,-0.11 -0.34,-0.34zm0 9.91l0 -8.07c0,-0.24 0.11,-0.36 0.34,-0.36l1.49 0c0.24,0 0.36,0.12 0.36,0.36l0 8.07c0,0.15 -0.03,0.25 -0.08,0.29 -0.05,0.05 -0.14,0.07 -0.27,0.07l-1.48 0c-0.24,0 -0.36,-0.12 -0.36,-0.36z"/>
  <path id="_38" class="fil3" d="M402.82 179.72l-2.22 0c-0.36,0 -0.61,0.07 -0.77,0.23 -0.16,0.15 -0.23,0.42 -0.23,0.78l0 2.97c0,0.37 0.07,0.63 0.23,0.78 0.16,0.16 0.41,0.24 0.77,0.24l2.22 0c0.24,0 0.36,0.12 0.36,0.36l0 1.19c0,0.12 -0.02,0.21 -0.07,0.26 -0.06,0.06 -0.15,0.08 -0.29,0.08l-1.02 0 -0.56 0.57 0 0.07c0.85,0 1.27,0.43 1.27,1.29l0 0.31c0,0.81 -0.54,1.21 -1.62,1.21l-0.78 0c-0.13,0 -0.22,-0.02 -0.26,-0.06 -0.04,-0.04 -0.06,-0.12 -0.06,-0.25l0 -0.34c0,-0.13 0.02,-0.22 0.07,-0.26 0.04,-0.05 0.13,-0.07 0.25,-0.07l0.57 0c0.31,0 0.52,-0.03 0.62,-0.08 0.11,-0.05 0.16,-0.16 0.16,-0.32l0 -0.03c0,-0.18 -0.05,-0.29 -0.16,-0.34 -0.1,-0.05 -0.31,-0.08 -0.62,-0.08l-0.44 0c-0.21,0 -0.35,-0.11 -0.43,-0.33 -0.07,-0.23 -0.03,-0.43 0.11,-0.61l0.57 -0.68 -0.24 0c-0.91,0 -1.61,-0.24 -2.1,-0.72 -0.5,-0.48 -0.74,-1.18 -0.74,-2.09l0 -3.17c0,-0.91 0.24,-1.6 0.74,-2.09 0.49,-0.48 1.19,-0.72 2.1,-0.72l2.57 0c0.24,0 0.36,0.12 0.36,0.36l0 1.19c0,0.13 -0.02,0.22 -0.07,0.27 -0.06,0.05 -0.15,0.08 -0.29,0.08z"/>
  <path id="_39" class="fil3" d="M408.87 186.61l-1.53 0c-0.91,0 -1.61,-0.24 -2.1,-0.72 -0.5,-0.48 -0.75,-1.18 -0.75,-2.09l0 -3.17c0,-0.91 0.25,-1.6 0.75,-2.09 0.49,-0.48 1.19,-0.72 2.1,-0.72l1.53 0c0.9,0 1.6,0.24 2.1,0.73 0.5,0.49 0.75,1.18 0.75,2.08l0 3.17c0,0.9 -0.25,1.59 -0.75,2.08 -0.5,0.49 -1.2,0.73 -2.1,0.73zm-1.2 -1.88l0.88 0c0.36,0 0.62,-0.07 0.78,-0.22 0.15,-0.15 0.23,-0.41 0.23,-0.78l0 -3.03c0,-0.37 -0.08,-0.63 -0.23,-0.78 -0.16,-0.15 -0.42,-0.22 -0.78,-0.22l-0.88 0c-0.37,0 -0.63,0.07 -0.78,0.22 -0.15,0.15 -0.22,0.41 -0.22,0.78l0 3.03c0,0.37 0.07,0.63 0.22,0.78 0.15,0.15 0.41,0.22 0.78,0.22z"/>
  <path id="_40" class="fil3" d="M416.77 186.61l-3.28 0c-0.23,0 -0.34,-0.12 -0.34,-0.36l0 -1.1c0,-0.13 0.02,-0.22 0.07,-0.27 0.04,-0.05 0.13,-0.08 0.27,-0.08l2.88 0c0.57,0 0.85,-0.17 0.85,-0.52l0 -0.08c0,-0.28 -0.24,-0.54 -0.71,-0.79l-1.71 -0.95c-0.58,-0.3 -1.01,-0.62 -1.29,-0.97 -0.28,-0.34 -0.41,-0.79 -0.41,-1.33 0,-0.8 0.21,-1.39 0.63,-1.77 0.43,-0.38 1.1,-0.57 2,-0.57l2.88 0c0.23,0 0.35,0.12 0.35,0.36l0 1.12c0,0.13 -0.03,0.22 -0.07,0.27 -0.05,0.05 -0.14,0.08 -0.28,0.08l-2.39 0c-0.57,0 -0.85,0.14 -0.85,0.43l0 0.08c0,0.26 0.25,0.52 0.74,0.78l1.74 1.03c0.6,0.33 1.02,0.66 1.26,1 0.24,0.33 0.37,0.78 0.37,1.33 0,1.54 -0.91,2.31 -2.71,2.31z"/>
  <path id="_41" class="fil3" d="M137.3 207.3l-0.71 0c-0.88,0 -1.55,-0.24 -2.01,-0.72 -0.45,-0.49 -0.68,-1.18 -0.68,-2.09l0 -3.17c0,-0.91 0.23,-1.61 0.68,-2.09 0.46,-0.48 1.13,-0.72 2.01,-0.72l0.71 0c0.36,0 0.7,0.08 1.02,0.23 0.32,0.16 0.54,0.39 0.67,0.7l0.07 0 0 -3.9c0,-0.24 0.12,-0.36 0.36,-0.36l1.47 0c0.24,0 0.36,0.12 0.36,0.36l0 11.4c0,0.24 -0.12,0.36 -0.36,0.36l-1.47 0c-0.24,0 -0.36,-0.12 -0.36,-0.36l0 -0.57 -0.07 0c-0.13,0.31 -0.35,0.54 -0.67,0.7 -0.32,0.15 -0.66,0.23 -1.02,0.23zm1.76 -3.21l0 -2.38c0,-0.87 -0.4,-1.31 -1.19,-1.31l-0.78 0c-0.36,0 -0.62,0.08 -0.77,0.24 -0.15,0.15 -0.23,0.41 -0.23,0.78l0 2.97c0,0.36 0.08,0.63 0.23,0.78 0.15,0.16 0.41,0.23 0.77,0.23l0.78 0c0.79,0 1.19,-0.43 1.19,-1.31z"/>
  <path id="_42" class="fil3" d="M149.63 207.3l-3.81 0c-0.91,0 -1.61,-0.24 -2.11,-0.72 -0.49,-0.49 -0.74,-1.18 -0.74,-2.09l0 -3.17c0,-0.91 0.25,-1.61 0.74,-2.09 0.5,-0.48 1.2,-0.72 2.11,-0.72l1.36 0c0.91,0 1.61,0.24 2.1,0.72 0.5,0.48 0.74,1.18 0.74,2.09l0 2.19c0,0.24 -0.12,0.36 -0.36,0.36l-4.33 0c-0.13,0 -0.2,0.06 -0.2,0.19l0 0.38c0,0.35 0.07,0.61 0.23,0.77 0.16,0.15 0.42,0.23 0.78,0.23l3.49 0c0.24,0 0.36,0.12 0.36,0.38l0 1.14c0,0.12 -0.03,0.21 -0.08,0.26 -0.05,0.05 -0.15,0.08 -0.28,0.08zm-4.3 -4.9l2.35 0c0.12,0 0.19,-0.06 0.19,-0.19l0 -0.82c0,-0.37 -0.08,-0.63 -0.23,-0.78 -0.15,-0.15 -0.4,-0.22 -0.77,-0.22l-0.73 0c-0.36,0 -0.62,0.07 -0.77,0.22 -0.15,0.15 -0.23,0.41 -0.23,0.78l0 0.82c0,0.13 0.07,0.19 0.19,0.19z"/>
  <path id="_43" class="fil3" d="M160.13 207.3l-1.83 0c-0.91,0 -1.61,-0.24 -2.11,-0.72 -0.49,-0.49 -0.74,-1.18 -0.74,-2.09l0 -5.47c0,-0.9 0.25,-1.6 0.74,-2.08 0.5,-0.48 1.2,-0.72 2.11,-0.72l1.83 0c0.89,0 1.59,0.24 2.08,0.73 0.5,0.49 0.74,1.18 0.74,2.07l0 0.52c0,0.25 -0.12,0.38 -0.36,0.38l-1.46 0c-0.25,0 -0.37,-0.13 -0.37,-0.38l0 -0.41c0,-0.37 -0.07,-0.63 -0.22,-0.79 -0.15,-0.15 -0.41,-0.23 -0.78,-0.23l-1.12 0c-0.35,0 -0.61,0.08 -0.76,0.23 -0.16,0.16 -0.24,0.42 -0.24,0.79l0 5.26c0,0.36 0.08,0.63 0.24,0.78 0.15,0.16 0.41,0.23 0.76,0.23l1.12 0c0.37,0 0.63,-0.07 0.78,-0.23 0.15,-0.15 0.22,-0.42 0.22,-0.78l0 -1.09c0,-0.13 -0.06,-0.19 -0.19,-0.19l-1.03 0c-0.24,0 -0.36,-0.12 -0.36,-0.36l0 -1.17c0,-0.25 0.12,-0.37 0.36,-0.37l3.02 0c0.26,0 0.39,0.14 0.39,0.4l0 2.88c0,0.9 -0.24,1.59 -0.74,2.08 -0.49,0.49 -1.19,0.73 -2.08,0.73z"/>
  <path id="_44" class="fil3" d="M168.02 207.3l-0.57 0c-0.88,0 -1.55,-0.24 -2.01,-0.72 -0.45,-0.49 -0.68,-1.18 -0.68,-2.09l0 -5.62c0,-0.24 0.12,-0.36 0.37,-0.36l1.46 0c0.24,0 0.36,0.12 0.36,0.36l0 5.52c0,0.36 0.08,0.63 0.24,0.78 0.15,0.16 0.41,0.23 0.76,0.23l0.64 0c0.79,0 1.19,-0.43 1.19,-1.31l0 -5.22c0,-0.24 0.12,-0.36 0.36,-0.36l1.45 0c0.25,0 0.38,0.12 0.38,0.36l0 8.07c0,0.24 -0.13,0.36 -0.38,0.36l-1.45 0c-0.24,0 -0.36,-0.12 -0.36,-0.36l0 -0.57 -0.07 0c-0.13,0.31 -0.35,0.54 -0.67,0.7 -0.32,0.15 -0.66,0.23 -1.02,0.23z"/>
  <path id="_45" class="fil3" d="M176.95 207.3l-0.41 0c-0.91,0 -1.61,-0.24 -2.11,-0.72 -0.49,-0.49 -0.74,-1.18 -0.74,-2.09l0 -3.17c0,-0.91 0.25,-1.61 0.74,-2.09 0.5,-0.48 1.2,-0.72 2.11,-0.72l3.98 0c0.25,0 0.38,0.12 0.38,0.36l0 8.07c0,0.24 -0.13,0.36 -0.38,0.36l-1.45 0c-0.24,0 -0.36,-0.12 -0.36,-0.36l0 -0.57 -0.07 0c-0.13,0.31 -0.35,0.54 -0.67,0.7 -0.32,0.15 -0.66,0.23 -1.02,0.23zm1.76 -3.21l0 -3.5c0,-0.12 -0.07,-0.19 -0.21,-0.19l-1.62 0c-0.36,0 -0.62,0.08 -0.77,0.24 -0.15,0.15 -0.23,0.41 -0.23,0.78l0 2.97c0,0.36 0.08,0.63 0.23,0.78 0.15,0.16 0.41,0.23 0.77,0.23l0.64 0c0.79,0 1.19,-0.43 1.19,-1.31z"/>
  <path id="_46" class="fil3" d="M184.62 207.3l-1.46 0c-0.24,0 -0.36,-0.12 -0.36,-0.36l0 -8.07c0,-0.24 0.12,-0.36 0.36,-0.36l1.46 0c0.25,0 0.37,0.12 0.37,0.36l0 0.57 0.07 0c0.25,-0.62 0.81,-0.93 1.68,-0.93l0.56 0c1.8,0 2.7,0.93 2.7,2.81l0 5.62c0,0.24 -0.12,0.36 -0.38,0.36l-1.44 0c-0.25,0 -0.37,-0.12 -0.37,-0.36l0 -5.52c0,-0.37 -0.07,-0.63 -0.23,-0.78 -0.15,-0.16 -0.42,-0.24 -0.78,-0.24l-0.62 0c-0.8,0 -1.19,0.44 -1.19,1.31l0 5.23c0,0.24 -0.12,0.36 -0.37,0.36z"/>
  <path id="_47" class="fil3" d="M194.9 207.3l-0.41 0c-0.91,0 -1.61,-0.24 -2.11,-0.72 -0.49,-0.49 -0.74,-1.18 -0.74,-2.09l0 -3.17c0,-0.91 0.25,-1.61 0.74,-2.09 0.5,-0.48 1.2,-0.72 2.11,-0.72l3.98 0c0.25,0 0.38,0.12 0.38,0.36l0 8.07c0,0.24 -0.13,0.36 -0.38,0.36l-1.45 0c-0.24,0 -0.36,-0.12 -0.36,-0.36l0 -0.57 -0.07 0c-0.13,0.31 -0.35,0.54 -0.67,0.7 -0.33,0.15 -0.66,0.23 -1.02,0.23zm1.76 -3.21l0 -3.5c0,-0.12 -0.07,-0.19 -0.21,-0.19l-1.62 0c-0.37,0 -0.63,0.08 -0.78,0.24 -0.15,0.15 -0.22,0.41 -0.22,0.78l0 2.97c0,0.36 0.07,0.63 0.22,0.78 0.15,0.16 0.41,0.23 0.78,0.23l0.64 0c0.79,0 1.19,-0.43 1.19,-1.31z"/>
  <path id="_48" class="fil3" d="M202.57 207.3l-1.46 0c-0.25,0 -0.37,-0.12 -0.37,-0.36l0 -8.07c0,-0.24 0.12,-0.36 0.37,-0.36l1.46 0c0.24,0 0.36,0.12 0.36,0.36l0 0.57 0.07 0c0.14,-0.28 0.37,-0.5 0.7,-0.67 0.33,-0.18 0.7,-0.26 1.13,-0.26l0.48 0c1,0 1.72,0.37 2.16,1.1 0.39,-0.73 1.06,-1.1 2.01,-1.1l0.5 0c0.89,0 1.56,0.24 2.01,0.72 0.46,0.48 0.68,1.18 0.68,2.09l0 5.62c0,0.24 -0.12,0.36 -0.36,0.36l-1.46 0c-0.24,0 -0.37,-0.12 -0.37,-0.36l0 -5.52c0,-0.37 -0.07,-0.63 -0.22,-0.78 -0.15,-0.16 -0.41,-0.24 -0.78,-0.24l-0.43 0c-0.79,0 -1.19,0.45 -1.19,1.33l0 5.21c0,0.24 -0.12,0.36 -0.38,0.36l-1.44 0c-0.25,0 -0.37,-0.12 -0.37,-0.36l0 -5.52c0,-0.37 -0.07,-0.63 -0.23,-0.78 -0.15,-0.16 -0.41,-0.24 -0.78,-0.24l-0.54 0c-0.79,0 -1.19,0.44 -1.19,1.31l0 5.23c0,0.24 -0.12,0.36 -0.36,0.36z"/>
  <path id="_49" class="fil3" d="M216.88 205.4l1.76 0c0.37,0 0.63,-0.07 0.78,-0.23 0.16,-0.15 0.23,-0.42 0.23,-0.78l0 -3c0,-0.37 -0.07,-0.63 -0.23,-0.79 -0.15,-0.15 -0.41,-0.23 -0.78,-0.23l-0.76 0c-0.79,0 -1.19,0.44 -1.19,1.31l0 3.53c0,0.13 0.06,0.19 0.19,0.19zm-2.38 1.54l0 -11.4c0,-0.24 0.12,-0.36 0.36,-0.36l1.47 0c0.24,0 0.36,0.12 0.36,0.36l0 3.88 0.07 0c0.12,-0.31 0.35,-0.54 0.67,-0.71 0.32,-0.16 0.66,-0.24 1.02,-0.24l0.55 0c0.91,0 1.61,0.24 2.1,0.73 0.5,0.48 0.74,1.18 0.74,2.08l0 3.21c0,0.91 -0.24,1.6 -0.74,2.09 -0.49,0.48 -1.19,0.72 -2.1,0.72l-4.14 0c-0.24,0 -0.36,-0.12 -0.36,-0.36z"/>
  <path id="_50" class="fil3" d="M223.65 197.02l0 -1.49c0,-0.23 0.12,-0.35 0.35,-0.35l1.5 0c0.23,0 0.34,0.11 0.34,0.33l0 1.51c0,0.24 -0.11,0.35 -0.34,0.35l-1.5 0c-0.23,0 -0.35,-0.11 -0.35,-0.35zm0 9.92l0 -8.07c0,-0.24 0.12,-0.36 0.35,-0.36l1.48 0c0.24,0 0.36,0.12 0.36,0.36l0 8.07c0,0.15 -0.02,0.25 -0.07,0.29 -0.06,0.05 -0.14,0.07 -0.27,0.07l-1.48 0c-0.24,0 -0.37,-0.12 -0.37,-0.36z"/>
  <path id="_51" class="fil3" d="M229.74 204.82l0 1.34c0,0.31 -0.13,0.67 -0.4,1.07l-1.19 1.74c-0.08,0.12 -0.18,0.17 -0.32,0.17 -0.2,0 -0.3,-0.11 -0.3,-0.34l0 -3.97c0,-0.22 0.12,-0.34 0.35,-0.34l1.53 0c0.22,0 0.33,0.11 0.33,0.33z"/>
  <path id="_52" class="fil3" d="M239.86 207.3l-1.88 0c-0.91,0 -1.61,-0.24 -2.1,-0.72 -0.5,-0.49 -0.74,-1.18 -0.74,-2.09l0 -5.47c0,-0.9 0.24,-1.6 0.74,-2.08 0.49,-0.48 1.19,-0.72 2.1,-0.72l1.88 0c0.9,0 1.6,0.24 2.1,0.73 0.5,0.49 0.74,1.18 0.74,2.07l0 0.82c0,0.25 -0.12,0.37 -0.37,0.37l-1.45 0c-0.24,0 -0.36,-0.12 -0.36,-0.37l0 -0.71c0,-0.37 -0.08,-0.63 -0.24,-0.79 -0.15,-0.15 -0.41,-0.23 -0.78,-0.23l-1.17 0c-0.36,0 -0.62,0.08 -0.77,0.23 -0.16,0.16 -0.23,0.42 -0.23,0.79l0 5.26c0,0.36 0.07,0.63 0.23,0.78 0.15,0.16 0.41,0.23 0.77,0.23l1.17 0c0.37,0 0.63,-0.07 0.78,-0.23 0.16,-0.15 0.24,-0.42 0.24,-0.78l0 -0.71c0,-0.25 0.12,-0.38 0.36,-0.38l1.45 0c0.25,0 0.37,0.13 0.37,0.38l0 0.81c0,0.9 -0.24,1.59 -0.74,2.08 -0.5,0.49 -1.2,0.73 -2.1,0.73z"/>
  <path id="_53" class="fil3" d="M247.5 207.3l-0.42 0c-0.9,0 -1.61,-0.24 -2.1,-0.72 -0.49,-0.49 -0.74,-1.18 -0.74,-2.09l0 -3.17c0,-0.91 0.25,-1.61 0.74,-2.09 0.49,-0.48 1.2,-0.72 2.1,-0.72l3.99 0c0.25,0 0.38,0.12 0.38,0.36l0 8.07c0,0.24 -0.13,0.36 -0.38,0.36l-1.45 0c-0.24,0 -0.36,-0.12 -0.36,-0.36l0 -0.57 -0.07 0c-0.13,0.31 -0.35,0.54 -0.67,0.7 -0.33,0.15 -0.67,0.23 -1.02,0.23zm1.76 -3.21l0 -3.5c0,-0.12 -0.07,-0.19 -0.21,-0.19l-1.62 0c-0.37,0 -0.63,0.08 -0.78,0.24 -0.15,0.15 -0.22,0.41 -0.22,0.78l0 2.97c0,0.36 0.07,0.63 0.22,0.78 0.15,0.16 0.41,0.23 0.78,0.23l0.64 0c0.79,0 1.19,-0.43 1.19,-1.31z"/>
  <path id="_54" class="fil3" d="M259.83 207.3l-3.81 0c-0.91,0 -1.61,-0.24 -2.11,-0.72 -0.49,-0.49 -0.74,-1.18 -0.74,-2.09l0 -3.17c0,-0.91 0.25,-1.61 0.74,-2.09 0.5,-0.48 1.2,-0.72 2.11,-0.72l1.36 0c0.91,0 1.61,0.24 2.1,0.72 0.49,0.48 0.74,1.18 0.74,2.09l0 2.19c0,0.24 -0.12,0.36 -0.36,0.36l-4.33 0c-0.14,0 -0.2,0.06 -0.2,0.19l0 0.38c0,0.35 0.07,0.61 0.23,0.77 0.15,0.15 0.42,0.23 0.78,0.23l3.49 0c0.24,0 0.36,0.12 0.36,0.38l0 1.14c0,0.12 -0.03,0.21 -0.08,0.26 -0.05,0.05 -0.15,0.08 -0.28,0.08zm-4.3 -4.9l2.35 0c0.12,0 0.19,-0.06 0.19,-0.19l0 -0.82c0,-0.37 -0.08,-0.63 -0.23,-0.78 -0.15,-0.15 -0.41,-0.22 -0.77,-0.22l-0.73 0c-0.36,0 -0.62,0.07 -0.77,0.22 -0.15,0.15 -0.23,0.41 -0.23,0.78l0 0.82c0,0.13 0.07,0.19 0.19,0.19z"/>
  <path id="_55" class="fil3" d="M262.05 200.4l-0.69 0c-0.14,0 -0.23,-0.02 -0.29,-0.06 -0.05,-0.05 -0.07,-0.14 -0.07,-0.28l0 -1.19c0,-0.24 0.12,-0.36 0.36,-0.36l0.69 0c0.12,0 0.19,-0.07 0.19,-0.19l0 -1.64c0,-0.24 0.12,-0.36 0.38,-0.36l1.45 0c0.24,0 0.36,0.12 0.36,0.36l0 1.64c0,0.12 0.07,0.19 0.2,0.19l1.35 0c0.24,0 0.36,0.12 0.36,0.36l0 1.19c0,0.13 -0.02,0.21 -0.08,0.27 -0.05,0.05 -0.14,0.07 -0.28,0.07l-1.35 0c-0.13,0 -0.2,0.07 -0.2,0.19l0 3.81c0,0.36 0.08,0.62 0.24,0.77 0.16,0.16 0.42,0.23 0.79,0.23l0.69 0c0.24,0 0.36,0.12 0.36,0.37l0 1.19c0,0.12 -0.02,0.21 -0.07,0.26 -0.05,0.05 -0.15,0.08 -0.29,0.08l-1.05 0c-0.91,0 -1.61,-0.24 -2.11,-0.72 -0.5,-0.49 -0.75,-1.18 -0.75,-2.07l0 -3.92c0,-0.12 -0.07,-0.19 -0.19,-0.19z"/>
  <path id="_56" class="fil3" d="M268.03 197.02l0 -1.49c0,-0.23 0.12,-0.35 0.35,-0.35l1.5 0c0.23,0 0.34,0.11 0.34,0.33l0 1.51c0,0.24 -0.11,0.35 -0.34,0.35l-1.5 0c-0.23,0 -0.35,-0.11 -0.35,-0.35zm0 9.92l0 -8.07c0,-0.24 0.12,-0.36 0.35,-0.36l1.48 0c0.24,0 0.36,0.12 0.36,0.36l0 8.07c0,0.15 -0.03,0.25 -0.08,0.29 -0.05,0.05 -0.14,0.07 -0.26,0.07l-1.49 0c-0.24,0 -0.36,-0.12 -0.36,-0.36z"/>
  <path id="_57" class="fil3" d="M272.39 200.4l-0.69 0c-0.13,0 -0.23,-0.02 -0.28,-0.06 -0.05,-0.05 -0.08,-0.14 -0.08,-0.28l0 -1.19c0,-0.24 0.12,-0.36 0.36,-0.36l0.69 0c0.13,0 0.19,-0.07 0.19,-0.19l0 -1.64c0,-0.24 0.13,-0.36 0.38,-0.36l1.45 0c0.24,0 0.36,0.12 0.36,0.36l0 1.64c0,0.12 0.07,0.19 0.21,0.19l1.34 0c0.24,0 0.37,0.12 0.37,0.36l0 1.19c0,0.13 -0.03,0.21 -0.08,0.27 -0.05,0.05 -0.15,0.07 -0.29,0.07l-1.34 0c-0.14,0 -0.21,0.07 -0.21,0.19l0 3.81c0,0.36 0.08,0.62 0.24,0.77 0.16,0.16 0.43,0.23 0.8,0.23l0.69 0c0.24,0 0.36,0.12 0.36,0.37l0 1.19c0,0.12 -0.03,0.21 -0.08,0.26 -0.05,0.05 -0.15,0.08 -0.28,0.08l-1.06 0c-0.9,0 -1.61,-0.24 -2.11,-0.72 -0.5,-0.49 -0.75,-1.18 -0.75,-2.07l0 -3.92c0,-0.12 -0.06,-0.19 -0.19,-0.19z"/>
  <path id="_58" class="fil3" d="M282.2 195.18l1.69 0c0.13,0 0.21,0.03 0.24,0.1 0.04,0.07 0.01,0.15 -0.07,0.25l-1.39 1.65c-0.13,0.15 -0.29,0.22 -0.48,0.22l-1.11 0c-0.23,0 -0.29,-0.12 -0.17,-0.36l0.78 -1.53c0.11,-0.22 0.28,-0.33 0.51,-0.33zm2.57 12.12l-3.81 0c-0.91,0 -1.61,-0.24 -2.1,-0.72 -0.5,-0.49 -0.74,-1.18 -0.74,-2.09l0 -3.17c0,-0.91 0.24,-1.61 0.74,-2.09 0.49,-0.48 1.19,-0.72 2.1,-0.72l1.36 0c0.91,0 1.61,0.24 2.11,0.72 0.49,0.48 0.74,1.18 0.74,2.09l0 2.19c0,0.24 -0.12,0.36 -0.36,0.36l-4.33 0c-0.14,0 -0.21,0.06 -0.21,0.19l0 0.38c0,0.35 0.08,0.61 0.23,0.77 0.16,0.15 0.42,0.23 0.79,0.23l3.48 0c0.24,0 0.36,0.12 0.36,0.38l0 1.14c0,0.12 -0.02,0.21 -0.07,0.26 -0.06,0.05 -0.15,0.08 -0.29,0.08zm-4.29 -4.9l2.34 0c0.13,0 0.19,-0.06 0.19,-0.19l0 -0.82c0,-0.37 -0.07,-0.63 -0.22,-0.78 -0.15,-0.15 -0.41,-0.22 -0.78,-0.22l-0.72 0c-0.37,0 -0.63,0.07 -0.78,0.22 -0.15,0.15 -0.22,0.41 -0.22,0.78l0 0.82c0,0.13 0.06,0.19 0.19,0.19z"/>
  <path id="_59" class="fil3" d="M297.08 207.3l-3.81 0c-0.91,0 -1.61,-0.24 -2.1,-0.72 -0.5,-0.49 -0.74,-1.18 -0.74,-2.09l0 -3.17c0,-0.91 0.24,-1.61 0.74,-2.09 0.49,-0.48 1.19,-0.72 2.1,-0.72l1.36 0c0.91,0 1.61,0.24 2.11,0.72 0.49,0.48 0.74,1.18 0.74,2.09l0 2.19c0,0.24 -0.12,0.36 -0.37,0.36l-4.32 0c-0.14,0 -0.21,0.06 -0.21,0.19l0 0.38c0,0.35 0.08,0.61 0.23,0.77 0.16,0.15 0.42,0.23 0.79,0.23l3.48 0c0.24,0 0.36,0.12 0.36,0.38l0 1.14c0,0.12 -0.02,0.21 -0.08,0.26 -0.05,0.05 -0.14,0.08 -0.28,0.08zm-4.29 -4.9l2.34 0c0.13,0 0.19,-0.06 0.19,-0.19l0 -0.82c0,-0.37 -0.07,-0.63 -0.22,-0.78 -0.15,-0.15 -0.41,-0.22 -0.78,-0.22l-0.72 0c-0.37,0 -0.63,0.07 -0.78,0.22 -0.15,0.15 -0.22,0.41 -0.22,0.78l0 0.82c0,0.13 0.06,0.19 0.19,0.19z"/>
  <path id="_60" class="fil3" d="M304.91 207.3l-1.47 0c-0.24,0 -0.36,-0.12 -0.36,-0.36l0 -10.36c0,-0.24 0.12,-0.36 0.36,-0.36l4.1 0c0.9,0 1.6,0.24 2.11,0.74 0.5,0.49 0.76,1.19 0.76,2.08l0 1.35c0,1.3 -0.51,2.16 -1.54,2.58l0 0.07 1.85 3.85c0.1,0.27 0,0.41 -0.3,0.41l-1.39 0c-0.21,0 -0.36,-0.02 -0.45,-0.07 -0.09,-0.04 -0.17,-0.14 -0.22,-0.29l-1.73 -3.73 -1.15 0c-0.14,0 -0.21,0.07 -0.21,0.19l0 3.54c0,0.24 -0.12,0.36 -0.36,0.36zm0.55 -5.84l1.69 0c0.37,0 0.64,-0.08 0.81,-0.24 0.17,-0.15 0.26,-0.4 0.26,-0.75l0 -1.34c0,-0.36 -0.09,-0.62 -0.26,-0.78 -0.17,-0.16 -0.44,-0.24 -0.81,-0.24l-1.69 0c-0.13,0 -0.19,0.06 -0.19,0.19l0 2.97c0,0.12 0.06,0.19 0.19,0.19z"/>
  <path id="_61" class="fil3" d="M318.82 207.3l-3.81 0c-0.91,0 -1.61,-0.24 -2.1,-0.72 -0.5,-0.49 -0.74,-1.18 -0.74,-2.09l0 -3.17c0,-0.91 0.24,-1.61 0.74,-2.09 0.49,-0.48 1.19,-0.72 2.1,-0.72l1.36 0c0.91,0 1.61,0.24 2.11,0.72 0.49,0.48 0.74,1.18 0.74,2.09l0 2.19c0,0.24 -0.12,0.36 -0.37,0.36l-4.32 0c-0.14,0 -0.21,0.06 -0.21,0.19l0 0.38c0,0.35 0.08,0.61 0.23,0.77 0.16,0.15 0.42,0.23 0.79,0.23l3.48 0c0.24,0 0.36,0.12 0.36,0.38l0 1.14c0,0.12 -0.02,0.21 -0.08,0.26 -0.05,0.05 -0.14,0.08 -0.28,0.08zm-4.29 -4.9l2.34 0c0.13,0 0.19,-0.06 0.19,-0.19l0 -0.82c0,-0.37 -0.07,-0.63 -0.22,-0.78 -0.15,-0.15 -0.41,-0.22 -0.78,-0.22l-0.72 0c-0.37,0 -0.63,0.07 -0.78,0.22 -0.15,0.15 -0.22,0.41 -0.22,0.78l0 0.82c0,0.13 0.06,0.19 0.19,0.19z"/>
  <path id="_62" class="fil3" d="M323.96 206.9l-0.57 0c-0.89,0 -1.56,-0.24 -2.01,-0.72 -0.45,-0.48 -0.68,-1.18 -0.68,-2.09l0 -2.77c0,-0.91 0.25,-1.61 0.74,-2.09 0.49,-0.48 1.19,-0.72 2.1,-0.72l3.99 0c0.25,0 0.37,0.12 0.37,0.36l0 8.5c0,0.9 -0.24,1.59 -0.74,2.07 -0.5,0.48 -1.2,0.72 -2.1,0.72l-3.31 0c-0.14,0 -0.23,-0.02 -0.28,-0.08 -0.06,-0.05 -0.08,-0.14 -0.08,-0.26l0 -1.19c0,-0.24 0.12,-0.36 0.36,-0.36l2.95 0c0.37,0 0.63,-0.08 0.78,-0.24 0.16,-0.15 0.24,-0.41 0.24,-0.76l0 -1.31 -0.07 0c-0.13,0.31 -0.35,0.54 -0.68,0.7 -0.32,0.16 -0.66,0.24 -1.01,0.24zm1.76 -3.2l0 -3.11c0,-0.12 -0.07,-0.19 -0.21,-0.19l-1.62 0c-0.37,0 -0.63,0.08 -0.78,0.24 -0.15,0.15 -0.22,0.41 -0.22,0.78l0 2.57c0,0.37 0.07,0.63 0.22,0.78 0.15,0.15 0.41,0.22 0.78,0.22l0.64 0c0.79,0 1.19,-0.43 1.19,-1.29z"/>
  <path id="_63" class="fil3" d="M329.89 197.02l0 -1.49c0,-0.23 0.11,-0.35 0.34,-0.35l1.5 0c0.23,0 0.35,0.11 0.35,0.33l0 1.51c0,0.24 -0.12,0.35 -0.35,0.35l-1.5 0c-0.23,0 -0.34,-0.11 -0.34,-0.35zm0 9.92l0 -8.07c0,-0.24 0.11,-0.36 0.34,-0.36l1.49 0c0.24,0 0.36,0.12 0.36,0.36l0 8.07c0,0.15 -0.03,0.25 -0.08,0.29 -0.05,0.05 -0.14,0.07 -0.27,0.07l-1.48 0c-0.24,0 -0.36,-0.12 -0.36,-0.36z"/>
  <path id="_64" class="fil3" d="M335.75 196.09l0 -0.65c0,-0.08 0.01,-0.14 0.03,-0.16 0.03,-0.03 0.08,-0.05 0.16,-0.05l0.67 0c0.12,0 0.17,0.07 0.17,0.21l0 0.19c0,0.24 0.02,0.4 0.06,0.49 0.04,0.09 0.1,0.13 0.18,0.13 0.09,0 0.16,-0.03 0.22,-0.1 0.06,-0.06 0.21,-0.24 0.45,-0.54 0.23,-0.3 0.55,-0.45 0.96,-0.45 0.82,0 1.24,0.44 1.24,1.31l0 0.64c0,0.15 -0.06,0.22 -0.18,0.22l-0.69 0c-0.11,0 -0.17,-0.07 -0.17,-0.22l0 -0.15c0,-0.27 -0.02,-0.44 -0.06,-0.52 -0.04,-0.08 -0.1,-0.12 -0.19,-0.12 -0.08,0 -0.15,0.02 -0.2,0.07 -0.04,0.04 -0.15,0.18 -0.32,0.41 -0.3,0.4 -0.66,0.6 -1.09,0.6 -0.83,0 -1.24,-0.43 -1.24,-1.31zm1.4 11.21l-0.42 0c-0.91,0 -1.61,-0.24 -2.1,-0.72 -0.5,-0.49 -0.74,-1.18 -0.74,-2.09l0 -3.17c0,-0.91 0.24,-1.61 0.74,-2.09 0.49,-0.48 1.19,-0.72 2.1,-0.72l3.98 0c0.26,0 0.38,0.12 0.38,0.36l0 8.07c0,0.24 -0.12,0.36 -0.38,0.36l-1.44 0c-0.25,0 -0.37,-0.12 -0.37,-0.36l0 -0.57 -0.07 0c-0.12,0.31 -0.35,0.54 -0.67,0.7 -0.32,0.15 -0.66,0.23 -1.01,0.23zm1.75 -3.21l0 -3.5c0,-0.12 -0.07,-0.19 -0.2,-0.19l-1.62 0c-0.37,0 -0.63,0.08 -0.78,0.24 -0.15,0.15 -0.22,0.41 -0.22,0.78l0 2.97c0,0.36 0.07,0.63 0.22,0.78 0.15,0.16 0.41,0.23 0.78,0.23l0.63 0c0.8,0 1.19,-0.43 1.19,-1.31z"/>
  <path id="_65" class="fil3" d="M347.2 207.3l-1.54 0c-0.91,0 -1.61,-0.24 -2.1,-0.72 -0.49,-0.49 -0.74,-1.18 -0.74,-2.09l0 -3.17c0,-0.91 0.25,-1.61 0.74,-2.09 0.49,-0.48 1.19,-0.72 2.1,-0.72l1.54 0c0.89,0 1.59,0.24 2.09,0.73 0.5,0.49 0.75,1.18 0.75,2.08l0 3.17c0,0.9 -0.25,1.59 -0.75,2.08 -0.5,0.49 -1.2,0.73 -2.09,0.73zm-1.21 -1.88l0.88 0c0.37,0 0.63,-0.07 0.78,-0.22 0.16,-0.15 0.24,-0.41 0.24,-0.78l0 -3.03c0,-0.37 -0.08,-0.63 -0.24,-0.78 -0.15,-0.15 -0.41,-0.22 -0.78,-0.22l-0.88 0c-0.37,0 -0.63,0.07 -0.78,0.22 -0.15,0.15 -0.22,0.41 -0.22,0.78l0 3.03c0,0.37 0.07,0.63 0.22,0.78 0.15,0.15 0.41,0.22 0.78,0.22z"/>
 </g>
</svg>
